<svg id="Group_23" data-name="Group 23" xmlns="http://www.w3.org/2000/svg" width="150" height="35.322" viewBox="0 0 150 35.322">
  <g id="Group_21" data-name="Group 21" transform="translate(44.915 7.647)" style="isolation: isolate; fill:#fff">
    <path id="Path_465" data-name="Path 465" d="M310.412,184.036h3.649v19.352h-3.649Z" transform="translate(-310.412 -184.036)"/>
    <path id="Path_466" data-name="Path 466" d="M360.3,218.322h3.325v1.73h.216a4.348,4.348,0,0,1,1.757-1.581,5.32,5.32,0,0,1,2.46-.581,4.71,4.71,0,0,1,3.784,1.514,6.147,6.147,0,0,1,1.3,4.135v8.568H369.6v-8.136a2.913,2.913,0,0,0-.676-2.054,2.45,2.45,0,0,0-1.892-.73,2.806,2.806,0,0,0-2.311,1.108,4.342,4.342,0,0,0-.878,2.784v7.027H360.3Z" transform="translate(-352.731 -212.755)"/>
    <path id="Path_467" data-name="Path 467" d="M467.026,218.322h3.325v1.73h.216a4.348,4.348,0,0,1,1.757-1.581,5.32,5.32,0,0,1,2.46-.581,4.71,4.71,0,0,1,3.784,1.514,6.146,6.146,0,0,1,1.3,4.135v8.568h-3.541v-8.136a2.913,2.913,0,0,0-.676-2.054,2.45,2.45,0,0,0-1.892-.73,2.805,2.805,0,0,0-2.311,1.108,4.342,4.342,0,0,0-.878,2.784v7.027h-3.541Z" transform="translate(-443.269 -212.755)"/>
    <path id="Path_468" data-name="Path 468" d="M568.448,231.512a5.465,5.465,0,0,1-2.176-2.676l3.162-1.378a3.223,3.223,0,0,0,1.23,1.473,3.409,3.409,0,0,0,1.851.5,3.742,3.742,0,0,0,1.622-.311,1.049,1.049,0,0,0,.649-1.014,1.1,1.1,0,0,0-.594-1.013,6.844,6.844,0,0,0-1.784-.608l-1.622-.351A5.924,5.924,0,0,1,568,224.66,3.543,3.543,0,0,1,566.894,222a3.447,3.447,0,0,1,.716-2.135,4.6,4.6,0,0,1,1.946-1.459,6.988,6.988,0,0,1,2.716-.513q4.27,0,5.7,3l-3.027,1.324a3.119,3.119,0,0,0-4.054-1.122.989.989,0,0,0-.54.851q0,.973,1.838,1.459l2.027.487a6.466,6.466,0,0,1,3.095,1.568,3.552,3.552,0,0,1,1.04,2.595,3.757,3.757,0,0,1-.77,2.338,5.06,5.06,0,0,1-2.108,1.581,7.5,7.5,0,0,1-2.96.567A7.261,7.261,0,0,1,568.448,231.512Z" transform="translate(-527.459 -212.755)"/>
    <path id="Path_469" data-name="Path 469" d="M652.686,220.74h3.973l2.379,8.946h.189l2.757-8.946h3.622l2.757,8.946h.189l2.379-8.946h3.919l-4.406,13.784h-3.811l-2.811-8.919h-.189l-2.784,8.919h-3.784Z" transform="translate(-600.765 -215.172)"/>
    <path id="Path_470" data-name="Path 470" d="M805.718,231.255a4.342,4.342,0,0,1-1.405-3.365,4.169,4.169,0,0,1,.73-2.432,4.7,4.7,0,0,1,2-1.622,6.812,6.812,0,0,1,2.811-.568,9.6,9.6,0,0,1,3.649.622V223.3a2.269,2.269,0,0,0-.852-1.838,3.477,3.477,0,0,0-2.284-.7,4.2,4.2,0,0,0-1.878.446,4.42,4.42,0,0,0-1.5,1.176l-2.27-1.784a6.668,6.668,0,0,1,2.514-2,7.736,7.736,0,0,1,3.3-.7,7.046,7.046,0,0,1,4.811,1.46,5.4,5.4,0,0,1,1.649,4.27v8.487H813.5V230.7h-.216a4.694,4.694,0,0,1-1.635,1.324,5.639,5.639,0,0,1-5.933-.77Zm6.879-2.46a3.309,3.309,0,0,0,.906-2.311,6.714,6.714,0,0,0-2.892-.649q-2.757,0-2.757,2.054a1.74,1.74,0,0,0,.595,1.365,2.486,2.486,0,0,0,1.7.527A3.157,3.157,0,0,0,812.6,228.8Z" transform="translate(-729.391 -212.755)"/>
    <path id="Path_471" data-name="Path 471" d="M908.722,218.322h3.325V220h.216a4.536,4.536,0,0,1,1.649-1.5,4.985,4.985,0,0,1,2.486-.608,6.381,6.381,0,0,1,3.392.932,6.45,6.45,0,0,1,2.392,2.608,8.739,8.739,0,0,1,0,7.582,6.469,6.469,0,0,1-2.392,2.595,6.382,6.382,0,0,1-3.392.932,5.156,5.156,0,0,1-2.5-.595,4.181,4.181,0,0,1-1.635-1.487h-.216l.216,1.946v5.541h-3.541Zm8.919,10.433a3.763,3.763,0,0,0,1.378-1.433,4.584,4.584,0,0,0,0-4.217,3.678,3.678,0,0,0-3.243-1.919,3.616,3.616,0,0,0-1.838.5,3.665,3.665,0,0,0-1.378,1.419,4.586,4.586,0,0,0,0,4.217,3.758,3.758,0,0,0,1.378,1.433,3.542,3.542,0,0,0,1.838.513A3.591,3.591,0,0,0,917.641,228.755Z" transform="translate(-817.962 -212.755)"/>
  </g>
  <g id="Group_22" data-name="Group 22" transform="translate(1.411 0)">
    <path id="Path_472" data-name="Path 472" d="M39.382,144.922l12.393.47a.428.428,0,0,1,.288.728l-2.715,2.715a.43.43,0,0,0,0,.607l6.978,6.978.834-.834a6.07,6.07,0,0,0,0-8.6L45.587,135.411a6.07,6.07,0,0,0-8.6,0L29.492,142.9l14.017,14.017a.426.426,0,0,1-.319.728l-12.393-.47a.428.428,0,0,1-.288-.728l2.715-2.715a.43.43,0,0,0,0-.607l-6.978-6.978-.834.834a6.07,6.07,0,0,0,0,8.6l11.574,11.574a6.07,6.07,0,0,0,8.6,0l7.494-7.494L39.064,145.651A.426.426,0,0,1,39.382,144.922Z" transform="translate(-23.625 -133.625)" fill="#4c4dfa"/>
  </g>
  <path id="Path_473" data-name="Path 473" d="M16.809,168.118l-2.291,2.291a.687.687,0,0,0,0,.956l2.291,2.291a.687.687,0,0,0,.956,0l2.291-2.291a.687.687,0,0,0,0-.956l-2.291-2.291A.687.687,0,0,0,16.809,168.118Z" transform="translate(-14.325 -162.722)" fill="#4c4dfa"/>
</svg>
